# xmcd
#
# Track frame offsets:
#	150
#	21450
#	35625
#	56925
#
# Disc length: 943 seconds
#
# Revision: 1
# Processed by: cddbd v1.5.1PL0 Copyright (c) Steve Scherf et al.
# Submitted via: CDex 1.50Beta5
#
DISCID=3703ad04
DTITLE=ネプチューン - 上を向いて歩いてゆこう/日本人は胃腸が弱い
DYEAR=1900
DGENRE=Pop
TTITLE0=上を向いて歩いてゆこう
TTITLE1=日本人は胃腸が弱い
TTITLE2=上を向いて歩いてゆこう (Instrumental)
TTITLE3=日本人は胃腸が弱い (Instrumental)
EXTD=
EXTT0=
EXTT1=
EXTT2=
EXTT3=
PLAYORDER=
